#!OML:ASF F:\VICON\USERDATA\INSTALL\rory3\rory3.ASF
:FULLY-SPECIFIED
:DEGREES
321
root 0.400026 17.637 30.951 -0.532178 -4.1589 -7.26528
lowerback 8.27314 2.31785 6.9041
upperback 0.609718 3.81174 2.26614
thorax -3.71138 1.79273 -1.93287
lowerneck -14.8863 -3.07704 -1.63764
upperneck 19.2976 -4.09388 1.08415
head 8.52438 -1.93628 0.158444
rclavicle 1.20016e-014 -1.81888e-014
rhumerus -17.0083 -7.22158 -82.6283
rradius 33.0395
rwrist -2.78161
rhand -19.3135 25.1387
rfingers 7.12502
rthumb 7.00256 -4.72549
lclavicle 1.20016e-014 -1.81888e-014
lhumerus -35.885 13.1526 76.5079
lradius 18.3538
lwrist 1.37924
lhand -31.5603 31.912
lfingers 7.12502
lthumb -4.82413 61.8371
rfemur 7.41419 6.88194 35.8184
rtibia 24.555
rfoot -21.7357 -7.22319
rtoes 2.67031
lfemur -26.2853 -7.79432 -7.20895
ltibia 11.1339
lfoot -6.36386 11.9004
ltoes -6.89929
322
root 0.419922 17.6182 31.1355 -0.444852 -4.30283 -7.19093
lowerback 8.28947 2.40076 6.9468
upperback 0.6074 3.92362 2.17871
thorax -3.70474 1.84694 -2.05915
lowerneck -14.9399 -3.19724 -1.60604
upperneck 19.1199 -4.26859 1.10736
head 8.47625 -2.01459 0.141002
rclavicle -1.30639e-014 -7.15625e-015
rhumerus -16.7894 -7.59511 -82.618
rradius 33.3973
rwrist -2.73278
rhand -19.2117 24.567
rfingers 7.12502
rthumb 7.10077 -5.29385
lclavicle -1.30639e-014 -7.15625e-015
lhumerus -35.9549 13.5336 76.1781
lradius 17.8643
lwrist 0.283351
lhand -30.6442 32.4663
lfingers 7.12502
lthumb -3.93956 62.4097
rfemur 7.81877 6.91505 35.6264
rtibia 24.8845
rfoot -21.8834 -6.8915
rtoes 2.03538
lfemur -25.6398 -6.99059 -7.68958
ltibia 9.24099
lfoot -7.15536 10.8431
ltoes -6.85094
323
root 0.440965 17.5951 31.327 -0.42701 -4.33225 -7.48515
lowerback 8.31417 2.39714 7.39696
upperback 0.618021 3.96148 2.17872
thorax -3.67449 1.85938 -2.31216
lowerneck -15.1627 -3.26575 -1.66693
upperneck 19.3142 -4.38707 1.28002
head 8.58983 -2.05382 0.189432
rclavicle -1.42752e-014 1.12313e-014
rhumerus -16.5955 -7.8981 -82.6643
rradius 33.6591
rwrist -2.53892
rhand -19.2141 24.3101
rfingers 7.12502
rthumb 7.09846 -5.5509
lclavicle -1.42752e-014 1.12313e-014
lhumerus -36.1285 14.076 75.6952
lradius 17.3215
lwrist -1.02402
lhand -29.5026 32.2366
lfingers 7.12502
lthumb -2.8371 62.1975
rfemur 8.30283 6.75391 35.8081
rtibia 25.2815
rfoot -21.9716 -6.3765
rtoes 1.44324
lfemur -25.111 -6.28723 -7.73956
ltibia 8.05783
lfoot -7.60639 9.89314
ltoes -5.88964
324
root 0.458575 17.5763 31.5214 -0.421669 -4.4115 -7.36152
lowerback 8.37905 2.39738 7.27268
upperback 0.557097 3.95941 2.15033
thorax -3.78106 1.85502 -2.2783
lowerneck -15.2516 -3.24821 -1.80948
upperneck 19.5532 -4.35574 1.38883
head 8.69281 -2.03582 0.249782
rclavicle -3.15633e-014 -5.06901e-015
rhumerus -16.4313 -8.01073 -82.6831
rradius 33.627
rwrist -2.58104
rhand -19.2373 24.0274
rfingers 7.12502
rthumb 7.07605 -5.8343
lclavicle -3.15633e-014 -5.06901e-015
lhumerus -36.6876 15.0715 75.0216
lradius 16.9071
lwrist -2.20076
lhand -29.3106 29.8714
lfingers 7.12502
lthumb -2.65172 59.8346
rfemur 8.79836 6.83634 35.6147
rtibia 25.7027
rfoot -21.8368 -6.11952
rtoes 0.845058
lfemur -25.0318 -5.56356 -8.27712
ltibia 8.12903
lfoot -7.47188 8.8436
ltoes -4.06408
325
root 0.479609 17.5651 31.7157 -0.274218 -4.45302 -7.02108
lowerback 8.36525 2.41645 6.9557
upperback 0.397239 3.96082 2.06965
thorax -3.95588 1.85137 -2.19137
lowerneck -15.1531 -3.28646 -1.9591
upperneck 19.6313 -4.38137 1.41562
head 8.70628 -2.05651 0.28132
rclavicle -3.65267e-015 -1.98785e-016
rhumerus -16.4542 -8.10697 -82.6286
rradius 33.5041
rwrist -2.64525
rhand -19.1697 24.1115
rfingers 7.12502
rthumb 7.14134 -5.74806
lclavicle -3.65267e-015 -1.98785e-016
lhumerus -37.295 15.8239 74.5438
lradius 16.6774
lwrist -2.91829
lhand -29.7676 28.2787
lfingers 7.12502
lthumb -3.09307 58.236
rfemur 9.01817 6.87779 35.1166
rtibia 26.1956
rfoot -21.4885 -5.98681
rtoes -0.1531
lfemur -25.5045 -4.88428 -9.09722
ltibia 9.27841
lfoot -6.87697 7.78793
ltoes -3.77098
326
root 0.503082 17.5486 31.91 -0.125334 -4.44048 -6.80206
lowerback 8.26241 2.42787 6.83316
upperback 0.317257 3.95626 1.97789
thorax -3.98381 1.84828 -2.21523
lowerneck -15.2543 -3.35134 -2.11988
upperneck 19.7253 -4.45983 1.54073
head 8.76531 -2.09068 0.337973
rclavicle -1.51635e-014 -1.27222e-014
rhumerus -16.5374 -8.28799 -82.6119
rradius 33.6424
rwrist -2.73008
rhand -19.4192 24.2734
rfingers 7.12502
rthumb 6.9005 -5.59412
lclavicle -1.51635e-014 -1.27222e-014
lhumerus -37.4698 15.9356 74.5369
lradius 16.5089
lwrist -2.68103
lhand -30.4078 29.655
lfingers 7.12502
lthumb -3.71123 59.6024
rfemur 9.18473 6.93413 34.7749
rtibia 26.8346
rfoot -21.1984 -5.96739
rtoes -2.05171
lfemur -26.0719 -4.26623 -9.80351
ltibia 10.7769
lfoot -6.75662 6.70659
ltoes -4.46358
327
root 0.519979 17.5254 32.1074 -0.241693 -4.40353 -6.78963
lowerback 8.29336 2.41057 6.81426
upperback 0.381166 3.93099 1.99209
thorax -3.93857 1.83906 -2.18725
lowerneck -15.2478 -3.33939 -2.08457
upperneck 19.6065 -4.42879 1.44872
head 8.71984 -2.08405 0.305909
rclavicle 6.30272e-014 1.96797e-014
rhumerus -16.4386 -8.6555 -82.6077
rradius 33.6184
rwrist -2.55198
rhand -19.5801 24.5089
rfingers 7.12502
rthumb 6.74516 -5.36361
lclavicle 6.30272e-014 1.96797e-014
lhumerus -37.5706 15.896 74.6968
lradius 16.5103
lwrist -2.51876
lhand -30.3173 32.709
lfingers 7.12502
lthumb -3.62384 62.6579
rfemur 9.67085 7.04667 34.7903
rtibia 27.5746
rfoot -21.0813 -5.89169
rtoes -2.98156
lfemur -26.3773 -3.60788 -10.3517
ltibia 12.4805
lfoot -6.08508 5.85793
ltoes -5.8061
328
root 0.538438 17.5037 32.3146 -0.397863 -4.2944 -6.80321
lowerback 8.18875 2.36739 6.78396
upperback 0.560631 3.85293 2.04928
thorax -3.7045 1.81303 -2.09234
lowerneck -15.544 -3.31048 -1.90015
upperneck 19.6718 -4.3598 1.13398
head 8.78245 -2.06884 0.172369
rclavicle -3.7502e-014 -1.35174e-014
rhumerus -16.1274 -9.01856 -82.569
rradius 33.4024
rwrist -2.29487
rhand -19.4617 24.8098
rfingers 7.12502
rthumb 6.85946 -5.05909
lclavicle -3.7502e-014 -1.35174e-014
lhumerus -37.8574 16.835 74.2429
lradius 16.2546
lwrist -3.34094
lhand -30.309 29.8569
lfingers 7.12502
lthumb -3.61587 59.806
rfemur 10.1924 7.00252 34.8095
rtibia 28.2812
rfoot -20.7854 -5.70236
rtoes -3.67931
lfemur -26.7565 -3.14416 -10.8369
ltibia 14.5802
lfoot -6.45051 5.14761
ltoes -6.37382
329
root 0.562096 17.4872 32.5267 -0.591703 -4.31993 -6.7492
lowerback 8.34261 2.40904 6.87297
upperback 0.594661 3.92525 1.98205
thorax -3.73834 1.84625 -2.22563
lowerneck -15.7866 -3.32363 -1.69532
upperneck 19.9235 -4.38486 0.931973
head 8.90314 -2.08374 0.0610104
rclavicle 1.8723e-014 -1.77912e-014
rhumerus -16.1621 -9.41666 -82.5117
rradius 33.2174
rwrist -1.95976
rhand -19.5969 25.0954
rfingers 7.12502
rthumb 6.72894 -4.77768
lclavicle 1.8723e-014 -1.77912e-014
lhumerus -38.0516 17.826 73.5239
lradius 15.5921
lwrist -4.48811
lhand -29.8193 26.8599
lfingers 7.12502
lthumb -3.14299 56.8164
rfemur 10.7579 6.93067 34.6728
rtibia 28.9502
rfoot -20.194 -5.21464
rtoes -4.02709
lfemur -26.9952 -2.80503 -11.311
ltibia 16.6911
lfoot -6.90502 4.05943
ltoes -4.55852
330
root 0.580211 17.4762 32.7459 -0.844517 -4.55553 -7.09375
lowerback 8.54537 2.48847 7.25501
upperback 0.607677 4.08767 2.06735
thorax -3.8046 1.91828 -2.37526
lowerneck -15.6387 -3.2925 -1.63915
upperneck 19.8979 -4.35661 0.92645
head 8.8655 -2.06799 0.0562433
rclavicle -8.18123e-015 -1.12313e-014
rhumerus -16.4214 -9.71096 -82.4493
rradius 33.1776
rwrist -1.77077
rhand -19.7055 25.2248
rfingers 7.12502
rthumb 6.62416 -4.65158
lclavicle -8.18123e-015 -1.12313e-014
lhumerus -38.2335 18.0211 73.2805
lradius 15.0437
lwrist -4.61268
lhand -28.815 24.105
lfingers 7.12502
lthumb -2.17305 54.0736
rfemur 11.387 6.92057 34.9885
rtibia 29.6058
rfoot -19.3875 -4.82357
rtoes -5.34795
lfemur -26.9193 -2.1802 -11.3319
ltibia 18.4951
lfoot -6.79453 2.23744
ltoes -3.19874
331
root 0.602757 17.4777 32.9657 -0.94224 -4.69694 -7.02058
lowerback 8.3811 2.52565 7.17693
upperback 0.694397 4.10943 2.0858
thorax -3.62646 1.93895 -2.30309
lowerneck -15.6184 -3.27557 -1.64943
upperneck 19.827 -4.31784 0.874836
head 8.83597 -2.05675 0.0462382
rclavicle -8.95773e-015 1.48095e-014
rhumerus -16.5402 -9.91157 -82.4044
rradius 33.2067
rwrist -1.577
rhand -19.6215 25.2473
rfingers 7.12502
rthumb 6.7052 -4.62649
lclavicle -8.95773e-015 1.48095e-014
lhumerus -38.4588 18.061 73.3291
lradius 15.0404
lwrist -4.42267
lhand -28.2335 22.8901
lfingers 7.12502
lthumb -1.61141 52.8638
rfemur 11.7724 6.70686 34.6966
rtibia 30.278
rfoot -18.6235 -4.27354
rtoes -6.01242
lfemur -26.9779 -1.85443 -11.6832
ltibia 19.9719
lfoot -6.04877 0.293604
ltoes -1.76394
332
root 0.626697 17.4925 33.1861 -0.885944 -4.7429 -6.55187
lowerback 8.16235 2.58632 6.74793
upperback 0.608933 4.13075 1.94183
thorax -3.61039 1.95473 -2.20795
lowerneck -15.4343 -3.35358 -1.67668
upperneck 19.8219 -4.43123 0.914319
head 8.80387 -2.10913 0.0534614
rclavicle -3.95085e-014 -3.76697e-014
rhumerus -16.9196 -10.0541 -82.3617
rradius 33.2768
rwrist -1.64181
rhand -19.5923 24.9992
rfingers 7.12502
rthumb 6.73343 -4.87373
lclavicle -3.95085e-014 -3.76697e-014
lhumerus -38.7814 18.349 73.0634
lradius 14.8777
lwrist -4.74535
lhand -28.0799 22.6118
lfingers 7.12502
lthumb -1.46306 52.5866
rfemur 11.9609 6.58287 33.983
rtibia 31.0117
rfoot -17.6833 -3.81007
rtoes -6.88397
lfemur -27.1872 -2.03276 -12.2299
ltibia 21.1369
lfoot -4.75435 -1.42191
ltoes -0.673478
333
root 0.651632 17.5097 33.4191 -0.868226 -4.70323 -6.03456
lowerback 7.85874 2.63175 6.31774
upperback 0.454568 4.12956 1.77205
thorax -3.61877 1.9574 -2.13361
lowerneck -14.9722 -3.39665 -1.70147
upperneck 19.8204 -4.51479 1.01278
head 8.72351 -2.14308 0.0889188
rclavicle -1.01567e-014 3.27995e-015
rhumerus -17.5597 -10.485 -82.2961
rradius 33.3653
rwrist -1.41268
rhand -19.6038 24.7806
rfingers 7.12502
rthumb 6.72233 -5.09265
lclavicle -1.01567e-014 3.27995e-015
lhumerus -39.0891 19.2656 72.3137
lradius 14.0946
lwrist -5.80928
lhand -28.0593 22.5687
lfingers 7.12502
lthumb -1.44323 52.5436
rfemur 12.0318 6.48829 33.2172
rtibia 31.948
rfoot -16.5645 -3.0218
rtoes -6.42834
lfemur -27.1273 -2.27086 -12.851
ltibia 21.8602
lfoot -3.57274 -3.08957
ltoes -3.28878
